<?xml version="1.0" standalone="no"?>
<!DOCTYPE svg PUBLIC "-//W3C//DTD SVG 20010904//EN"
 "http://www.w3.org/TR/2001/REC-SVG-20010904/DTD/svg10.dtd">
<svg version="1.0" xmlns="http://www.w3.org/2000/svg"
 width="128.000000pt" height="128.000000pt" viewBox="0 0 128.000000 128.000000"
 preserveAspectRatio="xMidYMid meet">
<metadata>
Created by potrace 1.14, written by Peter Selinger 2001-2017
</metadata>
<g transform="translate(0.000000,128.000000) scale(0.100000,-0.100000)"
fill="#000000" stroke="none">
<path d="M298 974 c-76 -18 -125 -44 -174 -92 -136 -136 -131 -362 11 -495
162 -152 443 -101 536 97 26 55 32 79 42 177 19 169 222 241 343 121 41 -42
57 -82 57 -142 0 -172 -189 -261 -330 -155 l-31 25 -11 -28 c-5 -15 -20 -44
-32 -64 -23 -37 -23 -38 -3 -53 98 -74 239 -86 359 -31 38 17 55 21 55 12 0
-32 51 -52 120 -47 13 1 15 45 15 338 0 327 -1 336 -20 343 -44 16 -115 -13
-115 -47 0 -10 -11 -8 -42 9 -177 91 -394 19 -474 -157 -13 -27 -28 -88 -33
-135 -13 -103 -43 -152 -113 -188 -79 -41 -155 -31 -222 29 -46 40 -66 78 -70
132 -13 171 177 279 317 181 l43 -31 34 64 c22 41 31 67 24 71 -106 71 -184
89 -286 66z"/>
</g>
</svg>
